<svg width="56" height="56" viewBox="0 0 56 56" fill="none" xmlns="http://www.w3.org/2000/svg">
<circle cx="28" cy="28" r="28" fill="#49C0E6"/>
<g clip-path="url(#clip0_115_223)">
<path d="M27.9999 22.2783C26.877 22.2784 25.7794 22.6114 24.8458 23.2352C23.9122 23.8591 23.1845 24.7458 22.7549 25.7832C22.3252 26.8206 22.2128 27.9621 22.4319 29.0634C22.651 30.1646 23.1917 31.1762 23.9857 31.9702C24.7797 32.7642 25.7913 33.3048 26.8926 33.5239C27.9939 33.7429 29.1354 33.6305 30.1727 33.2008C31.2101 32.7711 32.0968 32.0434 32.7206 31.1098C33.3444 30.1761 33.6774 29.0785 33.6774 27.9556C33.6745 26.4508 33.0754 25.0084 32.0113 23.9443C30.9471 22.8802 29.5047 22.2812 27.9999 22.2783ZM27.9999 31.5929C27.2805 31.5929 26.5774 31.3795 25.9793 30.9799C25.3812 30.5802 24.9151 30.0122 24.6398 29.3476C24.3646 28.683 24.2926 27.9518 24.4329 27.2463C24.5733 26.5408 24.9197 25.8927 25.4283 25.3841C25.9369 24.8754 26.585 24.5291 27.2905 24.3887C27.996 24.2484 28.7272 24.3204 29.3918 24.5956C30.0564 24.8709 30.6244 25.337 31.0241 25.9351C31.4237 26.5332 31.6371 27.2363 31.6371 27.9556C31.6328 28.919 31.2482 29.8416 30.5671 30.5228C29.8859 31.204 28.9632 31.5886 27.9999 31.5929Z" fill="white"/>
<path d="M33.8991 23.4316C34.6096 23.4316 35.1855 22.8557 35.1855 22.1452C35.1855 21.4348 34.6096 20.8589 33.8991 20.8589C33.1887 20.8589 32.6128 21.4348 32.6128 22.1452C32.6128 22.8557 33.1887 23.4316 33.8991 23.4316Z" fill="white"/>
<path d="M37.2257 18.8185C36.0727 17.6211 34.4315 17 32.5685 17H23.4315C19.5727 17 17 19.5727 17 23.4315V32.5243C17 34.4315 17.6211 36.0727 18.863 37.2704C20.0606 38.4236 21.657 39.0002 23.4759 39.0002H32.5243C34.4315 39.0002 36.0282 38.3792 37.1815 37.2704C38.3792 36.1171 39 34.4764 39 32.5687V23.4315C39 21.5685 38.3789 19.9718 37.2257 18.8185ZM37.0484 32.5685C37.0484 33.9435 36.5604 35.0523 35.762 35.8065C34.9637 36.5606 33.8549 36.9597 32.5241 36.9597H23.4757C22.1451 36.9597 21.0361 36.5604 20.2377 35.8065C19.4394 35.0081 19.0401 33.8993 19.0401 32.5243V23.4315C19.0401 22.1009 19.4394 20.9919 20.2377 20.1935C20.9917 19.4396 22.1449 19.0403 23.4757 19.0403H32.613C33.9435 19.0403 35.0525 19.4396 35.8509 20.238C36.6468 21.1084 37.0758 22.2524 37.0486 23.4315V32.5685H37.0484Z" fill="white"/>
</g>
<defs>
<clipPath id="clip0_115_223">
<rect width="22" height="22" fill="white" transform="translate(17 17)"/>
</clipPath>
</defs>
</svg>
