<svg width="248" height="96" viewBox="0 0 248 96" fill="none" xmlns="http://www.w3.org/2000/svg">
<path d="M162.273 84.5035L118.345 59.2944H162.273V49.4242H147.123V44.1114H162.273V34.2413H147.123V28.1648H162.273V0.8125H87.2827V95.9996H97.1264V59.2944H102.425V95.9996H112.269V67.1281L162.363 95.4248L162.265 84.4953L162.273 84.5035ZM137.279 49.4242H122.129V44.1114H137.279V49.4242ZM137.279 34.2331H122.129V28.1566H137.279V34.2331ZM97.1346 10.6827H152.43V18.2782H97.1346V10.6827ZM97.1346 33.4694V28.1566H112.285V34.2331H97.1346V33.4776V33.4694ZM97.1346 44.1032H112.285V49.416H97.1346V44.1032V44.1032Z" fill="#DF2B27"/>
<path d="M168.71 6.05178H168.677V19.6581H176.818V8.59732H199.109V15.6017L169.062 38.7415H168.677V46.9037H207.208V38.7415H182.419L207.2 19.6581H207.249V8.59732V6.05178V0.443359H168.71V6.05178Z" fill="#DF2B27"/>
<path d="M248 6.05178V0.443359H209.436V6.05178V38.7415V46.9037H247.975V40.8765H248.008V6.05178H248ZM217.568 8.60554H239.86V38.7415H217.568V8.59732V8.60554Z" fill="#DF2B27"/>
<path d="M168.71 54.4752H168.677V68.0898H176.818V57.029H199.109V64.0333L169.062 87.1732H168.677V95.3354H207.208V87.1732H182.419L207.2 68.0898H207.249V57.029V54.4752V48.875H168.71V54.4752Z" fill="#DF2B27"/>
<path d="M209.46 54.4752H209.428V68.0898H217.568V57.029H239.86V64.0333L209.813 87.1732H209.428V95.3354H247.967V87.1732H223.17L247.951 68.0898H248V57.029V54.4752V48.875H209.46V54.4752Z" fill="#DF2B27"/>
<path d="M45.5741 0H34.9934V21.5633H0V63.1789H34.9934V68.0729H0V78.6821H34.9934V95.8193H45.5741V78.6821H80.5675V68.0729H45.5741V63.1789H80.5675V21.5633H45.5741V17.4822H80.5675V6.88119H45.5741V0ZM70.4945 52.5697H10.5807V32.1724H70.4945V52.5697Z" fill="#DF2B27"/>
<path d="M41.7542 48.5569C45.2009 47.7412 47.3355 44.2783 46.522 40.8223C45.7085 37.3663 42.2549 35.2259 38.8082 36.0416C35.3615 36.8573 33.2269 40.3202 34.0404 43.7762C34.8539 47.2322 38.3074 49.3726 41.7542 48.5569Z" fill="#DF2B27"/>
<path d="M156.764 75.2454C160.211 74.4297 162.346 70.9668 161.532 67.5108C160.719 64.0548 157.265 61.9144 153.818 62.7301C150.372 63.5458 148.237 67.0087 149.051 70.4647C149.864 73.9207 153.318 76.061 156.764 75.2454Z" fill="#DF2B27"/>
</svg>
