<svg width="56" height="56" viewBox="0 0 56 56" fill="none" xmlns="http://www.w3.org/2000/svg">
<circle cx="28" cy="28" r="28" fill="#49C0E6"/>
<path d="M36.6893 23.5258C36.7026 23.7173 36.7026 23.9087 36.7026 24.102C36.7026 29.9899 32.1961 36.7805 23.9559 36.7805V36.777C21.5217 36.7805 19.1381 36.087 17.0889 34.7793C17.4428 34.8217 17.7985 34.8428 18.1552 34.8437C20.1724 34.8455 22.132 34.1723 23.719 32.9326C21.802 32.8964 20.121 31.6531 19.5337 29.8381C20.2052 29.967 20.8972 29.9405 21.5563 29.7614C19.4663 29.3414 17.9627 27.5149 17.9627 25.3937C17.9627 25.3743 17.9627 25.3558 17.9627 25.3373C18.5854 25.6823 19.2827 25.8737 19.9959 25.8949C18.0274 24.5864 17.4206 21.9817 18.6094 19.9452C20.8839 22.729 24.2398 24.4214 27.8423 24.6005C27.4812 23.0528 27.9744 21.4311 29.1383 20.3431C30.9427 18.6561 33.7805 18.7426 35.4766 20.5364C36.4799 20.3396 37.4415 19.9734 38.3215 19.4546C37.9871 20.4861 37.2872 21.3623 36.3522 21.919C37.2402 21.8149 38.1077 21.5784 38.9248 21.2176C38.3233 22.114 37.5657 22.8949 36.6893 23.5258Z" fill="white"/>
</svg>
